<svg width="40" height="40" viewBox="0 0 40 40" fill="none" xmlns="http://www.w3.org/2000/svg">
<mask id="mask0" mask-type="alpha" maskUnits="userSpaceOnUse" x="0" y="0" width="40" height="40">
<circle cx="20" cy="20" r="20" fill="white"/>
</mask>
<g mask="url(#mask0)">
<path d="M8.17605 12.9519V8H13.3528" stroke="#6887A3" stroke-width="1.5"/>
<path d="M8.17605 27.0481V32H13.3528" stroke="#6887A3" stroke-width="1.5"/>
<path d="M31.8167 27.0481V32H26.6399" stroke="#6887A3" stroke-width="1.5"/>
<path d="M31.8167 12.9519V8H26.6399" stroke="#6887A3" stroke-width="1.5"/>
<path d="M32 22H30.795H8" stroke="#6887A3"/>
<path fill-rule="evenodd" clip-rule="evenodd" d="M12 12.25C11.5858 12.25 11.25 12.5858 11.25 13V20.5H12.75V13.7618C14.5811 13.8196 16.2122 14.0864 17.4087 14.4796C18.0915 14.7039 18.5905 14.9558 18.9034 15.2011C19.2206 15.4497 19.2495 15.609 19.25 15.6579L19.2208 20.5H20.7208L20.75 15.6636H20.75V15.6591C20.75 15.6418 20.7615 15.4954 21.0879 15.2472C21.4021 15.0083 21.9032 14.7613 22.5875 14.5405C23.7862 14.1536 25.4188 13.8876 27.25 13.8299V20.5H28.75V13.0682C28.75 12.654 28.4142 12.3182 28 12.3182C25.7526 12.3182 23.6715 12.6144 22.1268 13.113C21.3587 13.3609 20.6813 13.6721 20.18 14.0532C20.126 14.0943 20.0725 14.1373 20.0202 14.1824C19.9582 14.1257 19.8941 14.0717 19.8288 14.0205C19.3261 13.6265 18.6466 13.3074 17.877 13.0545C16.3299 12.5461 14.247 12.25 12 12.25ZM26.8904 20.5C26.7564 20.2373 26.4742 20.0694 26.1649 20.0931C25.175 20.169 24.231 20.3071 23.3767 20.5H26.8904ZM16.6233 20.5C15.769 20.3071 14.825 20.169 13.8351 20.0931C13.5258 20.0694 13.2436 20.2373 13.1096 20.5H16.6233ZM13.8351 15.5931C13.4413 15.5629 13.0915 15.8433 13.0354 16.2343C12.9792 16.6253 13.236 16.9928 13.6224 17.0746L18.1304 18.0292C18.509 18.1094 18.8866 17.8882 19.0017 17.5186C19.1169 17.1491 18.9319 16.7526 18.5747 16.6034C17.3353 16.0858 15.6635 15.7333 13.8351 15.5931ZM26.3776 17.0746C26.764 16.9928 27.0208 16.6253 26.9646 16.2343C26.9085 15.8433 26.5587 15.5629 26.1649 15.5931C24.3365 15.7333 22.6647 16.0858 21.4253 16.6034C21.0681 16.7526 20.8831 17.1491 20.9983 17.5186C21.1134 17.8882 21.491 18.1094 21.8696 18.0292L26.3776 17.0746ZM13.8351 17.8431C13.4413 17.8129 13.0915 18.0933 13.0354 18.4843C12.9792 18.8753 13.236 19.2428 13.6224 19.3246L18.1304 20.2792C18.509 20.3594 18.8866 20.1382 19.0017 19.7686C19.1169 19.3991 18.9319 19.0026 18.5747 18.8534C17.3353 18.3358 15.6635 17.9833 13.8351 17.8431ZM26.3776 19.3246C26.764 19.2428 27.0208 18.8753 26.9646 18.4843C26.9085 18.0933 26.5587 17.8129 26.1649 17.8431C24.3365 17.9833 22.6647 18.3358 21.4253 18.8534C21.0681 19.0026 20.8831 19.3991 20.9983 19.7686C21.1134 20.1382 21.491 20.3594 21.8696 20.2792L26.3776 19.3246Z" fill="#6887A3"/>
<path d="M12 23.5V25.5C12 25.5 13.9403 25 16 25.5C17.8629 25.9522 20 27.5 20 27.5V23.5" stroke="#6887A3" stroke-linejoin="round" stroke-dasharray="2 1"/>
<path d="M28 23.5V25.5C28 25.5 26.0597 25 24 25.5C22.1371 25.9522 20 27.5 20 27.5V23.5" stroke="#6887A3" stroke-linejoin="round" stroke-dasharray="2 1"/>
</g>
</svg>
