<?xml version="1.0" encoding="UTF-8" standalone="no"?>
<svg
   width="40"
   height="40"
   viewBox="0 0 40 40"
   fill="none"
   version="1.1"
   id="svg470"
   sodipodi:docname="BookOCR-fff.svg"
   inkscape:version="1.2.1 (9c6d41e410, 2022-07-14)"
   xmlns:inkscape="http://www.inkscape.org/namespaces/inkscape"
   xmlns:sodipodi="http://sodipodi.sourceforge.net/DTD/sodipodi-0.dtd"
   xmlns="http://www.w3.org/2000/svg"
   xmlns:svg="http://www.w3.org/2000/svg">
  <defs
     id="defs474">
    <mask
       maskUnits="userSpaceOnUse"
       id="mask645">
      <g
         id="g649">
        <circle
           cx="20"
           cy="20"
           r="20"
           fill="#ffffff"
           id="circle647" />
      </g>
    </mask>
    <mask
       maskUnits="userSpaceOnUse"
       id="mask651">
      <g
         id="g655">
        <circle
           cx="20"
           cy="20"
           r="20"
           fill="#ffffff"
           id="circle653" />
      </g>
    </mask>
    <mask
       maskUnits="userSpaceOnUse"
       id="mask657">
      <g
         id="g661">
        <circle
           cx="20"
           cy="20"
           r="20"
           fill="#ffffff"
           id="circle659" />
      </g>
    </mask>
    <mask
       maskUnits="userSpaceOnUse"
       id="mask663">
      <g
         id="g667">
        <circle
           cx="20"
           cy="20"
           r="20"
           fill="#ffffff"
           id="circle665" />
      </g>
    </mask>
    <mask
       maskUnits="userSpaceOnUse"
       id="mask669">
      <g
         id="g673">
        <circle
           cx="20"
           cy="20"
           r="20"
           fill="#ffffff"
           id="circle671" />
      </g>
    </mask>
    <mask
       maskUnits="userSpaceOnUse"
       id="mask675">
      <g
         id="g679">
        <circle
           cx="20"
           cy="20"
           r="20"
           fill="#ffffff"
           id="circle677" />
      </g>
    </mask>
    <mask
       maskUnits="userSpaceOnUse"
       id="mask681">
      <g
         id="g685">
        <circle
           cx="20"
           cy="20"
           r="20"
           fill="#ffffff"
           id="circle683" />
      </g>
    </mask>
    <mask
       maskUnits="userSpaceOnUse"
       id="mask687">
      <g
         id="g691">
        <circle
           cx="20"
           cy="20"
           r="20"
           fill="#ffffff"
           id="circle689" />
      </g>
    </mask>
  </defs>
  <sodipodi:namedview
     id="namedview472"
     pagecolor="#ffffff"
     bordercolor="#666666"
     borderopacity="1.0"
     inkscape:showpageshadow="2"
     inkscape:pageopacity="0.0"
     inkscape:pagecheckerboard="0"
     inkscape:deskcolor="#d1d1d1"
     showgrid="false"
     inkscape:zoom="16.68772"
     inkscape:cx="10.277018"
     inkscape:cy="20.014717"
     inkscape:window-width="1920"
     inkscape:window-height="1137"
     inkscape:window-x="-8"
     inkscape:window-y="-8"
     inkscape:window-maximized="1"
     inkscape:current-layer="layer1" />
  <g
     inkscape:groupmode="layer"
     id="layer1-9"
     inkscape:label="Background for construction"
     style="display:none"
     transform="translate(0.50145256,-0.01544496)">
    <rect
       style="display:inline;fill:#7ab6db;fill-opacity:1;stroke:none;stroke-width:1.00157"
       id="rect629"
       width="26.233183"
       height="26.547085"
       x="6.3783312"
       y="6.7419024" />
  </g>
  <g
     inkscape:groupmode="layer"
     id="layer1"
     inkscape:label="Image"
     style="display:inline">
    <g
       id="g2309">
      <path
         style="color:#000000;fill:#ffffff;-inkscape-stroke:none"
         d="m 7.4257812,7.25 v 5.701172 H 8.9257813 V 8.75 h 4.4277347 v -1.5 z"
         id="path452" />
      <path
         style="color:#000000;fill:#ffffff;-inkscape-stroke:none"
         d="M 7.4257812,27.048828 V 32.75 h 1.5625001 4.3652347 v -1.5 h -4.3652347 -0.0625 v -4.201172 z"
         id="path454" />
      <path
         style="color:#000000;fill:#ffffff;-inkscape-stroke:none"
         d="M 31.066406,27.048828 V 31.25 h -4.425781 v 1.5 h 5.925781 v -5.701172 z"
         id="path456" />
      <path
         style="color:#000000;fill:#ffffff;-inkscape-stroke:none"
         d="m 26.640625,7.25 v 1.5 h 4.425781 v 4.201172 h 1.5 V 7.25 Z"
         id="path458" />
      <g
         id="path460"
         mask="url(#mask663)">
        <path
           style="color:#000000;fill:#ffffff;-inkscape-stroke:none"
           d="M 32,22 H 30.795 8"
           id="path2287" />
        <path
           style="color:#000000;fill:#ffffff;-inkscape-stroke:none;stroke:none"
           d="m 8,21.5 v 1 H 30.794922 32 v -1 h -1.205078 z"
           id="path2289" />
      </g>
      <path
         fill-rule="evenodd"
         clip-rule="evenodd"
         d="m 12,12.25 c -0.4142,0 -0.75,0.3358 -0.75,0.75 v 7.5 h 1.5 v -6.7382 c 1.8311,0.0578 3.4622,0.3246 4.6587,0.7178 0.6828,0.2243 1.1818,0.4762 1.4947,0.7215 0.3172,0.2486 0.3461,0.4079 0.3466,0.4568 L 19.2208,20.5 h 1.5 L 20.75,15.6636 v 0 -0.0045 c 0,-0.0173 0.0115,-0.1637 0.3379,-0.4119 0.3142,-0.2389 0.8153,-0.4859 1.4996,-0.7067 1.1987,-0.3869 2.8313,-0.6529 4.6625,-0.7106 V 20.5 h 1.5 v -7.4318 c 0,-0.4142 -0.3358,-0.75 -0.75,-0.75 -2.2474,0 -4.3285,0.2962 -5.8732,0.7948 -0.7681,0.2479 -1.4455,0.5591 -1.9468,0.9402 -0.054,0.0411 -0.1075,0.0841 -0.1598,0.1292 -0.062,-0.0567 -0.1261,-0.1107 -0.1914,-0.1619 -0.5027,-0.394 -1.1822,-0.7131 -1.9518,-0.966 C 16.3299,12.5461 14.247,12.25 12,12.25 Z M 26.8904,20.5 C 26.7564,20.2373 26.4742,20.0694 26.1649,20.0931 25.175,20.169 24.231,20.3071 23.3767,20.5 Z m -10.2671,0 C 15.769,20.3071 14.825,20.169 13.8351,20.0931 13.5258,20.0694 13.2436,20.2373 13.1096,20.5 Z m -2.7882,-4.9069 c -0.3938,-0.0302 -0.7436,0.2502 -0.7997,0.6412 -0.0562,0.391 0.2006,0.7585 0.587,0.8403 l 4.508,0.9546 c 0.3786,0.0802 0.7562,-0.141 0.8713,-0.5106 0.1152,-0.3695 -0.0698,-0.766 -0.427,-0.9152 -1.2394,-0.5176 -2.9112,-0.8701 -4.7396,-1.0103 z m 12.5425,1.4815 c 0.3864,-0.0818 0.6432,-0.4493 0.587,-0.8403 -0.0561,-0.391 -0.4059,-0.6714 -0.7997,-0.6412 -1.8284,0.1402 -3.5002,0.4927 -4.7396,1.0103 -0.3572,0.1492 -0.5422,0.5457 -0.427,0.9152 0.1151,0.3696 0.4927,0.5908 0.8713,0.5106 z m -12.5425,0.7685 c -0.3938,-0.0302 -0.7436,0.2502 -0.7997,0.6412 -0.0562,0.391 0.2006,0.7585 0.587,0.8403 l 4.508,0.9546 c 0.3786,0.0802 0.7562,-0.141 0.8713,-0.5106 0.1152,-0.3695 -0.0698,-0.766 -0.427,-0.9152 -1.2394,-0.5176 -2.9112,-0.8701 -4.7396,-1.0103 z m 12.5425,1.4815 c 0.3864,-0.0818 0.6432,-0.4493 0.587,-0.8403 -0.0561,-0.391 -0.4059,-0.6714 -0.7997,-0.6412 -1.8284,0.1402 -3.5002,0.4927 -4.7396,1.0103 -0.3572,0.1492 -0.5422,0.5457 -0.427,0.9152 0.1151,0.3696 0.4927,0.5908 0.8713,0.5106 z"
         fill="#6887a3"
         id="path462"
         mask="url(#mask657)"
         style="fill:#ffffff;fill-opacity:1;stroke:none" />
      <path
         style="color:#000000;fill:#ffffff;stroke-linejoin:round;stroke-dasharray:2, 1;-inkscape-stroke:none"
         d="m 11.5,23.5 v 2 h 1 v -2 z m 8,0.527344 v 2 h 1 v -2 z m -5.515625,0.75 -0.162109,0.0039 a 0.50005,0.50005 0 0 0 -0.0078,0 l -0.158203,0.0039 a 0.50005,0.50005 0 0 0 -0.0078,0 l -0.154297,0.0078 a 0.50005,0.50005 0 0 0 -0.01172,0 l -0.289063,0.02148 a 0.50005,0.50005 0 0 0 -0.01367,0 l -0.242188,0.02344 0.09766,0.996093 0.234375,-0.02344 0.277344,-0.01953 0.142578,-0.0059 0.150391,-0.0059 0.154297,-0.002 0.160156,0.002 0.162109,0.002 0.164063,0.0078 0.169922,0.0098 0.169922,0.01367 0.111328,0.01172 0.101562,-0.996094 -0.117187,-0.01172 a 0.50005,0.50005 0 0 0 -0.0098,0 l -0.181641,-0.01563 a 0.50005,0.50005 0 0 0 -0.0098,0 l -0.179688,-0.01172 a 0.50005,0.50005 0 0 0 -0.0098,0 l -0.173828,-0.0059 a 0.50005,0.50005 0 0 0 -0.0098,-0.002 l -0.171875,-0.002 a 0.50005,0.50005 0 0 0 -0.0098,0 l -0.166015,-0.002 a 0.50005,0.50005 0 0 0 -0.0098,0 z m 2.09375,0.228515 -0.222656,0.97461 0.02539,0.0059 0.16211,0.04102 0.162109,0.04687 0.166016,0.05469 0.166015,0.05664 0.166016,0.0625 0.167969,0.06641 0.167968,0.07031 0.166016,0.07422 0.166016,0.07617 0.162109,0.07813 0.07617,0.03711 0.445312,-0.894532 -0.07813,-0.03906 a 0.50005,0.50005 0 0 0 -0.0078,-0.0039 l -0.169922,-0.08008 a 0.50005,0.50005 0 0 0 -0.0059,-0.0039 l -0.171875,-0.08008 a 0.50005,0.50005 0 0 0 -0.0078,-0.0039 l -0.173828,-0.07617 a 0.50005,0.50005 0 0 0 -0.0098,-0.0039 l -0.175781,-0.07422 a 0.50005,0.50005 0 0 0 -0.0078,-0.002 l -0.177735,-0.07031 a 0.50005,0.50005 0 0 0 -0.0098,-0.0039 l -0.175782,-0.06641 a 0.50005,0.50005 0 0 0 -0.01172,-0.0039 l -0.177735,-0.0625 a 0.50005,0.50005 0 0 0 -0.01172,-0.0039 l -0.177735,-0.05664 a 0.50005,0.50005 0 0 0 -0.01172,-0.0039 l -0.177734,-0.05078 a 0.50005,0.50005 0 0 0 -0.01367,-0.0039 L 16.125,25.015625 a 0.50005,0.50005 0 0 0 -0.01367,-0.0039 z m 2.888672,1.242188 -0.507813,0.859375 0.257813,0.154297 0.24414,0.148437 0.214844,0.136719 0.183594,0.121094 0.259766,0.175781 0.0918,0.06445 A 0.50005,0.50005 0 0 0 20.5,27.5 v -0.472656 h -0.300781 l -0.0059,-0.0039 a 0.50005,0.50005 0 0 0 -0.0078,-0.0039 l -0.267578,-0.18164 a 0.50005,0.50005 0 0 0 -0.0078,-0.0059 l -0.189453,-0.123047 a 0.50005,0.50005 0 0 0 -0.0059,-0.0039 l -0.220703,-0.140625 a 0.50005,0.50005 0 0 0 -0.0078,-0.0039 l -0.25,-0.154297 a 0.50005,0.50005 0 0 0 -0.0078,-0.0039 z"
         id="path464" />
      <path
         style="color:#000000;fill:#ffffff;stroke-linejoin:round;stroke-dasharray:2, 1;-inkscape-stroke:none"
         d="m 27.5,23.5 v 2 h 1 v -2 z m -8,0.527344 v 2 h 1 v -2 z m 6.505859,0.75 -0.166015,0.002 a 0.50005,0.50005 0 0 0 -0.0098,0 l -0.171875,0.002 a 0.50005,0.50005 0 0 0 -0.0098,0.002 l -0.173828,0.0059 a 0.50005,0.50005 0 0 0 -0.0098,0 l -0.179688,0.01172 a 0.50005,0.50005 0 0 0 -0.0098,0 l -0.181641,0.01563 a 0.50005,0.50005 0 0 0 -0.0098,0 l -0.117187,0.01172 0.101562,0.996094 0.111328,-0.01172 0.169922,-0.01367 0.169922,-0.0098 0.164063,-0.0078 0.162109,-0.002 0.160156,-0.002 0.154297,0.002 0.150391,0.0059 0.142578,0.0059 0.277344,0.01953 0.234375,0.02344 0.09766,-0.996093 -0.242188,-0.02344 a 0.50005,0.50005 0 0 0 -0.01367,0 l -0.289063,-0.02148 a 0.50005,0.50005 0 0 0 -0.01172,0 l -0.154297,-0.0078 a 0.50005,0.50005 0 0 0 -0.0078,0 l -0.158203,-0.0039 a 0.50005,0.50005 0 0 0 -0.0078,0 l -0.162109,-0.0039 a 0.50005,0.50005 0 0 0 -0.0098,0 z m -2.083984,0.228515 -0.0332,0.0059 a 0.50005,0.50005 0 0 0 -0.01367,0.0039 l -0.175781,0.04687 a 0.50005,0.50005 0 0 0 -0.01367,0.0039 l -0.177735,0.05078 a 0.50005,0.50005 0 0 0 -0.01172,0.0039 l -0.177735,0.05664 a 0.50005,0.50005 0 0 0 -0.01172,0.0039 l -0.177735,0.0625 a 0.50005,0.50005 0 0 0 -0.01172,0.0039 l -0.175781,0.06641 a 0.50005,0.50005 0 0 0 -0.0098,0.0039 l -0.177735,0.07031 a 0.50005,0.50005 0 0 0 -0.0078,0.002 l -0.175782,0.07422 a 0.50005,0.50005 0 0 0 -0.0098,0.0039 l -0.173828,0.07617 a 0.50005,0.50005 0 0 0 -0.0078,0.0039 l -0.171875,0.08008 a 0.50005,0.50005 0 0 0 -0.0059,0.0039 l -0.169922,0.08008 a 0.50005,0.50005 0 0 0 -0.0078,0.0039 l -0.07813,0.03906 0.445313,0.894532 0.07617,-0.03711 0.162109,-0.07813 0.166016,-0.07617 0.166015,-0.07422 0.167969,-0.07031 0.167969,-0.06641 0.166016,-0.0625 0.166015,-0.05664 0.166016,-0.05469 0.162109,-0.04687 0.16211,-0.04102 0.02539,-0.0059 z m -2.888672,1.242188 -0.261719,0.154297 a 0.50005,0.50005 0 0 0 -0.0078,0.0039 l -0.25,0.154297 a 0.50005,0.50005 0 0 0 -0.0078,0.0039 l -0.220703,0.140625 a 0.50005,0.50005 0 0 0 -0.0059,0.0039 l -0.189453,0.123047 a 0.50005,0.50005 0 0 0 -0.0078,0.0059 l -0.267578,0.18164 a 0.50005,0.50005 0 0 0 -0.0078,0.0039 l -0.0059,0.0039 H 19.5 V 27.5 a 0.50005,0.50005 0 0 0 0.789062,0.408203 l 0.0918,-0.06445 0.259766,-0.175781 0.183594,-0.121094 0.214843,-0.136719 0.244141,-0.148437 0.257813,-0.154297 z"
         id="path466" />
    </g>
  </g>
</svg>
