<?xml version="1.0" encoding="UTF-8" standalone="no"?>
<svg
   width="40"
   height="40"
   viewBox="0 0 40 40"
   fill="none"
   version="1.1"
   id="svg470"
   sodipodi:docname="BookOCR-fff.svg"
   inkscape:version="1.2.1 (9c6d41e410, 2022-07-14)"
   xmlns:inkscape="http://www.inkscape.org/namespaces/inkscape"
   xmlns:sodipodi="http://sodipodi.sourceforge.net/DTD/sodipodi-0.dtd"
   xmlns="http://www.w3.org/2000/svg"
   xmlns:svg="http://www.w3.org/2000/svg">
  <defs
     id="defs474">
    <mask
       maskUnits="userSpaceOnUse"
       id="mask645">
      <g
         id="g649">
        <circle
           cx="20"
           cy="20"
           r="20"
           fill="#ffffff"
           id="circle647" />
      </g>
    </mask>
    <mask
       maskUnits="userSpaceOnUse"
       id="mask651">
      <g
         id="g655">
        <circle
           cx="20"
           cy="20"
           r="20"
           fill="#ffffff"
           id="circle653" />
      </g>
    </mask>
    <mask
       maskUnits="userSpaceOnUse"
       id="mask657">
      <g
         id="g661">
        <circle
           cx="20"
           cy="20"
           r="20"
           fill="#ffffff"
           id="circle659" />
      </g>
    </mask>
    <mask
       maskUnits="userSpaceOnUse"
       id="mask663">
      <g
         id="g667">
        <circle
           cx="20"
           cy="20"
           r="20"
           fill="#ffffff"
           id="circle665" />
      </g>
    </mask>
    <mask
       maskUnits="userSpaceOnUse"
       id="mask669">
      <g
         id="g673">
        <circle
           cx="20"
           cy="20"
           r="20"
           fill="#ffffff"
           id="circle671" />
      </g>
    </mask>
    <mask
       maskUnits="userSpaceOnUse"
       id="mask675">
      <g
         id="g679">
        <circle
           cx="20"
           cy="20"
           r="20"
           fill="#ffffff"
           id="circle677" />
      </g>
    </mask>
    <mask
       maskUnits="userSpaceOnUse"
       id="mask681">
      <g
         id="g685">
        <circle
           cx="20"
           cy="20"
           r="20"
           fill="#ffffff"
           id="circle683" />
      </g>
    </mask>
    <mask
       maskUnits="userSpaceOnUse"
       id="mask687">
      <g
         id="g691">
        <circle
           cx="20"
           cy="20"
           r="20"
           fill="#ffffff"
           id="circle689" />
      </g>
    </mask>
  </defs>
  <sodipodi:namedview
     id="namedview472"
     pagecolor="#ffffff"
     bordercolor="#666666"
     borderopacity="1.0"
     inkscape:showpageshadow="2"
     inkscape:pageopacity="0.0"
     inkscape:pagecheckerboard="0"
     inkscape:deskcolor="#d1d1d1"
     showgrid="false"
     inkscape:zoom="16.68772"
     inkscape:cx="10.277018"
     inkscape:cy="20.014717"
     inkscape:window-width="1920"
     inkscape:window-height="1137"
     inkscape:window-x="-8"
     inkscape:window-y="-8"
     inkscape:window-maximized="1"
     inkscape:current-layer="layer1" />
  <g
     inkscape:groupmode="layer"
     id="layer1-9"
     inkscape:label="Background for construction"
     style="display:none"
     transform="translate(0.50145256,-0.01544496)">
    <rect
       style="display:inline;fill:#7ab6db;fill-opacity:1;stroke:none;stroke-width:1.00157"
       id="rect629"
       width="26.233183"
       height="26.547085"
       x="6.3783312"
       y="6.7419024" />
  </g>
  <g
     inkscape:groupmode="layer"
     id="layer1"
     inkscape:label="Image"
     style="display:inline">
    <g
       id="g1255">
      <path
         d="M 8.17605,12.9519 V 8 h 5.17675"
         stroke="#6887a3"
         stroke-width="1.5"
         id="path452"
         mask="url(#mask687)"
         style="stroke:#ffffff;stroke-opacity:1" />
      <path
         d="M 8.17605,27.0481 V 32 h 5.17675"
         stroke="#6887a3"
         stroke-width="1.5"
         id="path454"
         mask="url(#mask681)"
         style="stroke:#ffffff;stroke-opacity:1" />
      <path
         d="M 31.8167,27.0481 V 32 h -5.1768"
         stroke="#6887a3"
         stroke-width="1.5"
         id="path456"
         mask="url(#mask675)"
         style="stroke:#ffffff;stroke-opacity:1" />
      <path
         d="M 31.8167,12.9519 V 8 h -5.1768"
         stroke="#6887a3"
         stroke-width="1.5"
         id="path458"
         mask="url(#mask669)"
         style="stroke:#ffffff;stroke-opacity:1" />
      <path
         d="M 32,22 H 30.795 8"
         stroke="#6887a3"
         id="path460"
         mask="url(#mask663)"
         style="stroke:#ffffff;stroke-opacity:1" />
      <path
         fill-rule="evenodd"
         clip-rule="evenodd"
         d="m 12,12.25 c -0.4142,0 -0.75,0.3358 -0.75,0.75 v 7.5 h 1.5 v -6.7382 c 1.8311,0.0578 3.4622,0.3246 4.6587,0.7178 0.6828,0.2243 1.1818,0.4762 1.4947,0.7215 0.3172,0.2486 0.3461,0.4079 0.3466,0.4568 L 19.2208,20.5 h 1.5 L 20.75,15.6636 v 0 -0.0045 c 0,-0.0173 0.0115,-0.1637 0.3379,-0.4119 0.3142,-0.2389 0.8153,-0.4859 1.4996,-0.7067 1.1987,-0.3869 2.8313,-0.6529 4.6625,-0.7106 V 20.5 h 1.5 v -7.4318 c 0,-0.4142 -0.3358,-0.75 -0.75,-0.75 -2.2474,0 -4.3285,0.2962 -5.8732,0.7948 -0.7681,0.2479 -1.4455,0.5591 -1.9468,0.9402 -0.054,0.0411 -0.1075,0.0841 -0.1598,0.1292 -0.062,-0.0567 -0.1261,-0.1107 -0.1914,-0.1619 -0.5027,-0.394 -1.1822,-0.7131 -1.9518,-0.966 C 16.3299,12.5461 14.247,12.25 12,12.25 Z M 26.8904,20.5 C 26.7564,20.2373 26.4742,20.0694 26.1649,20.0931 25.175,20.169 24.231,20.3071 23.3767,20.5 Z m -10.2671,0 C 15.769,20.3071 14.825,20.169 13.8351,20.0931 13.5258,20.0694 13.2436,20.2373 13.1096,20.5 Z m -2.7882,-4.9069 c -0.3938,-0.0302 -0.7436,0.2502 -0.7997,0.6412 -0.0562,0.391 0.2006,0.7585 0.587,0.8403 l 4.508,0.9546 c 0.3786,0.0802 0.7562,-0.141 0.8713,-0.5106 0.1152,-0.3695 -0.0698,-0.766 -0.427,-0.9152 -1.2394,-0.5176 -2.9112,-0.8701 -4.7396,-1.0103 z m 12.5425,1.4815 c 0.3864,-0.0818 0.6432,-0.4493 0.587,-0.8403 -0.0561,-0.391 -0.4059,-0.6714 -0.7997,-0.6412 -1.8284,0.1402 -3.5002,0.4927 -4.7396,1.0103 -0.3572,0.1492 -0.5422,0.5457 -0.427,0.9152 0.1151,0.3696 0.4927,0.5908 0.8713,0.5106 z m -12.5425,0.7685 c -0.3938,-0.0302 -0.7436,0.2502 -0.7997,0.6412 -0.0562,0.391 0.2006,0.7585 0.587,0.8403 l 4.508,0.9546 c 0.3786,0.0802 0.7562,-0.141 0.8713,-0.5106 0.1152,-0.3695 -0.0698,-0.766 -0.427,-0.9152 -1.2394,-0.5176 -2.9112,-0.8701 -4.7396,-1.0103 z m 12.5425,1.4815 c 0.3864,-0.0818 0.6432,-0.4493 0.587,-0.8403 -0.0561,-0.391 -0.4059,-0.6714 -0.7997,-0.6412 -1.8284,0.1402 -3.5002,0.4927 -4.7396,1.0103 -0.3572,0.1492 -0.5422,0.5457 -0.427,0.9152 0.1151,0.3696 0.4927,0.5908 0.8713,0.5106 z"
         fill="#6887a3"
         id="path462"
         mask="url(#mask657)"
         style="fill:#ffffff;fill-opacity:1" />
      <path
         d="m 12,23.5 v 2 c 0,0 1.9403,-0.5 4,0 1.8629,0.4522 4,2 4,2 v -4"
         stroke="#6887a3"
         stroke-linejoin="round"
         stroke-dasharray="2, 1"
         id="path464"
         mask="url(#mask651)"
         style="stroke:#ffffff;stroke-opacity:1" />
      <path
         d="m 28,23.5 v 2 c 0,0 -1.9403,-0.5 -4,0 -1.8629,0.4522 -4,2 -4,2 v -4"
         stroke="#6887a3"
         stroke-linejoin="round"
         stroke-dasharray="2, 1"
         id="path466"
         mask="url(#mask645)"
         style="stroke:#ffffff;stroke-opacity:1" />
    </g>
  </g>
</svg>
