<?xml version="1.0" encoding="utf-8"?>
<svg version="1.1" id="Ebene_1" xmlns="http://www.w3.org/2000/svg" xmlns:xlink="http://www.w3.org/1999/xlink" x="0px" y="0px"
	 viewBox="-285 377 40 40" style="enable-background:new -285 377 40 40;" xml:space="preserve">
<style type="text/css">
	.st0{display:none;fill:#9B9B9B;}
	.st1{fill:none;stroke:#FFFFFF;stroke-width:1.5;}
	.st2{fill:none;}
	.st3{fill:#FFFFFF;}
</style>
<rect id="BG" x="-284.8" y="377.1" class="st0" width="40" height="39.8"/>
<g id="Ecken">
	<path class="st1" d="M-276.8,390v-5h5.2"/>
	<path class="st1" d="M-276.8,404v5h5.2"/>
	<path class="st1" d="M-253.2,404v5h-5.2"/>
	<path class="st1" d="M-253.2,390v-5h-5.2"/>
</g>
<path class="st2" d="M-264.5,388.1"/>
<g id="WebPfad">
	<path class="st3" d="M-268.1,399c-0.1-0.5-0.1-1-0.1-1.5c0-0.9,0.1-1.9,0.3-3c1-0.2,2.1-0.3,3-0.3c0.9,0,1.9,0.1,3,0.3
		c0.2,1,0.3,2.1,0.3,3c0,0.5,0,1-0.1,1.5c-1.1-0.2-2.2-0.3-3.2-0.3C-266,398.7-267,398.8-268.1,399z"/>
	<path class="st3" d="M-269.6,399.3c-0.1-0.6-0.1-1.2-0.1-1.8c0-0.8,0.1-1.7,0.2-2.7c-1.9,0.4-3.6,0.9-4.5,1.2
		c-0.3,0.1-0.4,0.1-0.6,0.2c-0.1,0-0.2,0.1-0.2,0.1c0,0.4-0.1,0.8-0.1,1.2c0,1.1,0.2,2.1,0.5,3l0.1,0
		C-273.4,400.2-271.6,399.7-269.6,399.3z"/>
	<path class="st3" d="M-273.9,401.9c1-0.3,2.7-0.8,4.5-1.2c0.4,2.5,1.2,5.1,1.5,6.2C-270.5,406.2-272.7,404.4-273.9,401.9z"/>
	<path class="st3" d="M-267.9,400.5c1-0.2,2-0.3,2.9-0.3c0.9,0,1.9,0.1,3,0.3c-0.4,2.4-1.1,4.9-1.4,6.1c-0.1,0.3-0.1,0.4-0.2,0.6
		c0,0.1-0.1,0.2-0.1,0.2c-0.4,0-0.8,0.1-1.2,0.1c-0.4,0-0.8,0-1.2-0.1c0,0,0-0.1,0-0.1c0-0.1-0.1-0.2-0.1-0.4l0,0
		C-266.6,405.9-267.5,403.1-267.9,400.5z"/>
	<path class="st3" d="M-260.5,400.7c-0.4,2.5-1.1,5.1-1.5,6.2l0,0c2.6-0.8,4.8-2.7,6-5.1C-257,401.6-258.7,401.1-260.5,400.7z"/>
	<path class="st3" d="M-255.5,400.5c0.3-1,0.5-2,0.5-3.1c0-0.4,0-0.8-0.1-1.2l-0.2-0.1l0,0l0,0l0,0c-0.1,0-1.5-0.5-3.5-1
		c-0.6-0.1-1.1-0.3-1.7-0.4c0.1,0.9,0.2,1.8,0.2,2.7c0,0.6,0,1.2-0.1,1.8C-258.4,399.6-256.5,400.1-255.5,400.5L-255.5,400.5
		L-255.5,400.5z"/>
	<path class="st3" d="M-265,392.7c-0.8,0-1.7,0.1-2.7,0.2c0.4-1.9,0.9-3.6,1.2-4.6c0.1-0.3,0.1-0.4,0.2-0.6c0-0.1,0.1-0.2,0.1-0.2
		c0.4,0,0.8-0.1,1.2-0.1c0.4,0,0.8,0,1.2,0.1c0,0.1,0.1,0.2,0.1,0.2c0.1,0.2,0.1,0.3,0.2,0.6c0.3,0.9,0.8,2.7,1.2,4.5
		C-263.3,392.8-264.2,392.7-265,392.7z"/>
	<path class="st3" d="M-258.4,393.7c1.2,0.3,2.3,0.6,2.9,0.8c-1-3.2-3.5-5.6-6.6-6.6l0,0c0.3,1,0.9,3.1,1.4,5.2
		C-259.9,393.3-259.1,393.5-258.4,393.7z"/>
	<path class="st3" d="M-274.5,394.6c1-0.3,3.1-0.9,5.2-1.4c0.4-2.2,1-4.3,1.3-5.3l0,0C-271.1,388.9-273.6,391.4-274.5,394.6
		L-274.5,394.6z"/>
</g>
</svg>
