<?xml version="1.0" encoding="utf-8"?>
<!-- Generator: Adobe Illustrator 19.0.0, SVG Export Plug-In . SVG Version: 6.00 Build 0)  -->
<svg version="1.1" id="Ebene_1" xmlns="http://www.w3.org/2000/svg" xmlns:xlink="http://www.w3.org/1999/xlink" x="0px" y="0px"
	 viewBox="-285 377 40 40" style="enable-background:new -285 377 40 40;" xml:space="preserve">
<style type="text/css">
	.st0{display:none;fill:#9B9B9B;}
	.st1{opacity:0.77;}
	.st2{fill:none;stroke:#FFFFFF;stroke-width:1.5;}
</style>

<rect id="BG" x="-285" y="377.5" class="st0" width="40" height="39.8"/>
<g id="Zahnrad" class="st1">
	<path class="st2" d="M-255.7,396.1c-0.1-0.4-0.5-0.8-0.9-0.9l-0.3-0.1c-0.7-0.2-1.3-0.7-1.8-1.4c-0.4-0.7-0.5-1.5-0.3-2.2l0,0
		l0.1-0.3c0.1-0.4,0-0.9-0.4-1.2c0,0-0.3-0.2-1.1-0.7s-1.2-0.6-1.2-0.6c-0.5-0.1-0.9,0-1.2,0.3l-0.2,0.2c-0.5,0.5-1.3,0.8-2.1,0.8
		s-1.5-0.3-2.1-0.8l-0.2-0.2c-0.3-0.3-0.8-0.4-1.2-0.3c0,0-0.4,0.1-1.2,0.6s-1.1,0.7-1.1,0.7c-0.3,0.3-0.5,0.8-0.4,1.2l0.1,0.3
		c0.2,0.7,0.1,1.5-0.3,2.2c-0.4,0.7-1,1.2-1.8,1.4l-0.3,0.1c-0.4,0.1-0.8,0.5-0.9,0.9c0,0-0.1,0.5-0.1,1.3s0.1,1.3,0.1,1.3
		c0.1,0.4,0.5,0.8,0.9,0.9l0.3,0.1c0.7,0.2,1.4,0.7,1.8,1.4c0.4,0.7,0.5,1.5,0.3,2.2l0,0l-0.1,0.3c-0.1,0.4,0,0.9,0.4,1.2
		c0,0,0.3,0.2,1.1,0.7s1.2,0.6,1.2,0.6c0.4,0.1,0.9,0,1.2-0.3l0.2-0.2c0.5-0.5,1.3-0.8,2.1-0.8s1.5,0.3,2.1,0.8l0,0l0.2,0.2
		c0.3,0.3,0.8,0.4,1.2,0.3c0,0,0.5-0.1,1.2-0.6s1.1-0.7,1.1-0.7c0.3-0.3,0.5-0.8,0.4-1.2l-0.1-0.3c-0.2-0.7-0.1-1.5,0.3-2.2
		c0.4-0.7,1-1.2,1.8-1.4l0,0l0.3-0.1c0.5-0.1,0.8-0.5,0.9-0.9c0,0,0.1-0.4,0.1-1.3C-255.7,396.5-255.7,396.1-255.7,396.1
		L-255.7,396.1L-255.7,396.1z M-265,401.1c-2.1,0-3.7-1.7-3.7-3.7c0-2.1,1.7-3.7,3.7-3.7c2.1,0,3.7,1.7,3.7,3.7
		C-261.3,399.5-262.9,401.1-265,401.1L-265,401.1L-265,401.1z"/>
</g>
<g id="Ecken">
	<path class="st2" d="M-276.8,390.4v-5h5.2"/>
	<path class="st2" d="M-276.8,404.4v5h5.2"/>
	<path class="st2" d="M-253.2,404.4v5h-5.2"/>
	<path class="st2" d="M-253.2,390.4v-5h-5.2"/>
</g>
</svg>
