<?xml version="1.0" encoding="UTF-8" standalone="no"?>
<svg
   width="40"
   height="40"
   viewBox="0 0 40 40"
   fill="none"
   version="1.1"
   id="svg398"
   sodipodi:docname="PageOCR-fff.svg"
   inkscape:version="1.2.1 (9c6d41e410, 2022-07-14)"
   xmlns:inkscape="http://www.inkscape.org/namespaces/inkscape"
   xmlns:sodipodi="http://sodipodi.sourceforge.net/DTD/sodipodi-0.dtd"
   xmlns="http://www.w3.org/2000/svg"
   xmlns:svg="http://www.w3.org/2000/svg">
  <defs
     id="defs402">
    <mask
       maskUnits="userSpaceOnUse"
       id="mask2513">
      <g
         id="g2517">
        <circle
           cx="20"
           cy="20"
           r="20"
           fill="#c4c4c4"
           id="circle2515" />
      </g>
    </mask>
    <mask
       maskUnits="userSpaceOnUse"
       id="mask2519">
      <g
         id="g2523">
        <circle
           cx="20"
           cy="20"
           r="20"
           fill="#c4c4c4"
           id="circle2521" />
      </g>
    </mask>
    <mask
       maskUnits="userSpaceOnUse"
       id="mask2525">
      <g
         id="g2529">
        <circle
           cx="20"
           cy="20"
           r="20"
           fill="#c4c4c4"
           id="circle2527" />
      </g>
    </mask>
    <mask
       maskUnits="userSpaceOnUse"
       id="mask2531">
      <g
         id="g2535">
        <circle
           cx="20"
           cy="20"
           r="20"
           fill="#c4c4c4"
           id="circle2533" />
      </g>
    </mask>
    <mask
       maskUnits="userSpaceOnUse"
       id="mask2537">
      <g
         id="g2541">
        <circle
           cx="20"
           cy="20"
           r="20"
           fill="#c4c4c4"
           id="circle2539" />
      </g>
    </mask>
    <mask
       maskUnits="userSpaceOnUse"
       id="mask2543">
      <g
         id="g2547">
        <circle
           cx="20"
           cy="20"
           r="20"
           fill="#c4c4c4"
           id="circle2545" />
      </g>
    </mask>
    <mask
       maskUnits="userSpaceOnUse"
       id="mask2549">
      <g
         id="g2553">
        <circle
           cx="20"
           cy="20"
           r="20"
           fill="#c4c4c4"
           id="circle2551" />
      </g>
    </mask>
    <mask
       maskUnits="userSpaceOnUse"
       id="mask2555">
      <g
         id="g2559">
        <circle
           cx="20"
           cy="20"
           r="20"
           fill="#c4c4c4"
           id="circle2557" />
      </g>
    </mask>
    <mask
       maskUnits="userSpaceOnUse"
       id="mask2561">
      <g
         id="g2565">
        <circle
           cx="20"
           cy="20"
           r="20"
           fill="#c4c4c4"
           id="circle2563" />
      </g>
    </mask>
    <mask
       maskUnits="userSpaceOnUse"
       id="mask2567">
      <g
         id="g2571">
        <circle
           cx="20"
           cy="20"
           r="20"
           fill="#c4c4c4"
           id="circle2569" />
      </g>
    </mask>
  </defs>
  <sodipodi:namedview
     id="namedview400"
     pagecolor="#ffffff"
     bordercolor="#666666"
     borderopacity="1.0"
     inkscape:showpageshadow="2"
     inkscape:pageopacity="0.0"
     inkscape:pagecheckerboard="0"
     inkscape:deskcolor="#d1d1d1"
     showgrid="false"
     inkscape:zoom="22.3"
     inkscape:cx="18.318386"
     inkscape:cy="20"
     inkscape:window-width="1920"
     inkscape:window-height="1137"
     inkscape:window-x="-8"
     inkscape:window-y="-8"
     inkscape:window-maximized="1"
     inkscape:current-layer="layer3" />
  <g
     inkscape:groupmode="layer"
     id="layer1"
     inkscape:label="Background for construction"
     style="display:none">
    <rect
       style="display:inline;fill:#7ab6db;fill-opacity:1;stroke:none;stroke-width:1.00157"
       id="rect629"
       width="26.233183"
       height="26.547085"
       x="6.8161435"
       y="6.6367712" />
  </g>
  <g
     inkscape:groupmode="layer"
     id="layer3"
     inkscape:label="Image"
     style="display:inline">
    <g
       id="g2832">
      <path
         style="color:#000000;fill:#ffffff;-inkscape-stroke:none"
         d="m 22.724609,14.09375 v 8.253906 h 2 V 14.09375 Z"
         id="path376" />
      <path
         style="color:#000000;fill:#ffffff;-inkscape-stroke:none"
         d="m 17.757812,14.09375 v 3.433594 4.820312 h 2 V 17.527344 14.09375 Z"
         id="path378" />
      <path
         style="color:#000000;fill:#ffffff;-inkscape-stroke:none"
         d="m 17.666016,13.173828 c -1.154565,0 -2.546822,0.04887 -3.802735,0.621094 -1.255913,0.57222 -2.3125,1.886145 -2.3125,3.726562 0,1.039384 0.309906,1.946196 0.869141,2.605469 0.559234,0.659273 1.311026,1.045442 2.082031,1.277344 1.542011,0.463804 3.266217,0.396484 4.697266,0.396484 v -2 c -1.465549,0 -3.063107,0.0057 -4.121094,-0.3125 -0.528993,-0.15911 -0.898085,-0.37758 -1.132812,-0.654297 -0.234728,-0.276716 -0.394532,-0.637935 -0.394532,-1.3125 0,-1.206679 0.393615,-1.565896 1.140625,-1.90625 0.74701,-0.340353 1.910677,-0.441406 2.97461,-0.441406 l -0.04492,-0.002 c 1.22021,0.05589 4.183714,0.07348 9.017578,0.08008 l 0.002,-2 c -4.829527,-0.0066 -7.842547,-0.02842 -8.927734,-0.07813 h -0.02344 z"
         id="path380" />
      <path
         style="color:#000000;fill:#ffffff;-inkscape-stroke:none"
         d="m 7.4257812,7.25 v 5.701172 H 8.9257813 V 8.75 h 4.4277347 v -1.5 z"
         id="path382" />
      <path
         style="color:#000000;fill:#ffffff;-inkscape-stroke:none"
         d="M 7.4257812,27.048828 V 32.75 h 5.9277348 v -1.5 H 8.9257813 v -4.201172 z"
         id="path384" />
      <path
         style="color:#000000;fill:#ffffff;-inkscape-stroke:none;stroke:none"
         d="M 31.066406,27.048828 V 31.25 h -4.425781 v 1.5 h 5.925781 v -5.701172 z"
         id="path386" />
      <path
         style="color:#000000;fill:#ffffff;-inkscape-stroke:none"
         d="m 26.640625,7.25 v 1.5 h 4.425781 v 4.201172 h 1.5 V 7.25 Z"
         id="path388" />
      <path
         style="color:#000000;fill:#ffffff;-inkscape-stroke:none"
         d="m 8,23.115234 v 1 H 30.794922 32 v -1 h -1.205078 z"
         id="path390" />
      <path
         style="color:#000000;fill:#ffffff;stroke-miterlimit:16;stroke-dasharray:1, 0;-inkscape-stroke:none"
         d="m 17.757812,24.757812 v 1 1 1 1 1 0.333985 h 2 v -0.333985 -1 -1 -1 -1 -1 z"
         id="path392" />
      <path
         style="color:#000000;fill:#ffffff;stroke-miterlimit:16;stroke-dasharray:1, 0;-inkscape-stroke:none"
         d="m 22.724609,24.757812 v 1 1 1 1 1 0.333985 h 2 v -0.333985 -1 -1 -1 -1 -1 z"
         id="path394" />
    </g>
  </g>
</svg>
