<svg width="40" height="40" viewBox="0 0 40 40" fill="none" xmlns="http://www.w3.org/2000/svg">
<mask id="mask0" mask-type="alpha" maskUnits="userSpaceOnUse" x="0" y="0" width="40" height="40">
<circle cx="20" cy="20" r="20" fill="#C4C4C4"/>
</mask>
<g mask="url(#mask0)">
<path d="M23.7241 14.094V22.3471" stroke="#6887A3" stroke-width="2"/>
<path d="M18.7586 14.094V17.5273V22.3471" stroke="#6887A3" stroke-width="2"/>
<path d="M19.2 20.8C16.3034 20.8 12.5517 20.9499 12.5517 17.522C12.5517 14.4749 15.4483 14.1733 17.6668 14.1733C18.8195 14.2261 21.8082 14.2459 26.6399 14.2525" stroke="#6887A3" stroke-width="2"/>
<path d="M8.17605 12.9519V8H13.3528" stroke="#6887A3" stroke-width="1.5"/>
<path d="M8.17605 27.0481V32H13.3528" stroke="#6887A3" stroke-width="1.5"/>
<path d="M31.8167 27.0481V32H26.6399" stroke="#6887A3" stroke-width="1.5"/>
<path d="M31.8167 12.9519V8H26.6399" stroke="#6887A3" stroke-width="1.5"/>
<path d="M32 23.616H30.795H8" stroke="#6887A3"/>
<path d="M18.7586 24.7587L18.7586 30.0909" stroke="#6887A3" stroke-width="2" stroke-miterlimit="16" stroke-dasharray="1 0"/>
<path d="M23.7241 24.7587L23.7241 30.0909" stroke="#6887A3" stroke-width="2" stroke-miterlimit="16" stroke-dasharray="1 0"/>
</g>
</svg>
