<?xml version="1.0" encoding="utf-8"?>
<svg viewBox="9.563 22.312 34.448 34.448" xmlns="http://www.w3.org/2000/svg">
  <rect x="9.563" y="22.312" width="34.448" height="34.448" style="fill-opacity: 0; fill: rgb(255, 255, 255);"/>
  <g transform="matrix(1, 0, 0, 1, 167.868835, 60.036423)">
    <g>
      <g transform="matrix(0.619946, 0, 0, 0.619946, -334.990051, -77.318451)" style="">
        <g>
          <g>
            <path d="M317.61 84.43L317.61 96.93" transform="matrix(1, 0, 0, 1, 0, 0)" opacity="1" fill-opacity="0" stroke="#6887a3" stroke-width="2" stroke-opacity="1"/>
          </g>
        </g>
        <g>
          <g>
            <path d="M310.95 84.43L310.95 89.63L310.95 96.93" transform="matrix(1, 0, 0, 1, 0, 0)" opacity="1" fill-opacity="0" stroke="#6887a3" stroke-width="2" stroke-opacity="1"/>
          </g>
        </g>
        <g>
          <g>
            <path d="M310.95 95.05C308.7 94.94 302.08 95.26 301.95 90.11C301.83 84.96 306.45 84.32 308.95 84.43C310.62 84.51 314.95 84.54 321.95 84.55" transform="matrix(1, 0, 0, 1, 0, 0)" opacity="1" fill-opacity="0" stroke="#6887a3" stroke-width="2" stroke-opacity="1"/>
          </g>
        </g>
      </g>
      <g transform="matrix(0.619946, 0, 0, 0.619946, -334.990051, -77.318451)" style="">
        <g>
          <path d="M295.2 82.58L295.2 75.08L302.7 75.08" transform="matrix(1, 0, 0, 1, 0, 0)" opacity="1" fill-opacity="0" stroke="#6887a3" stroke-width="2" stroke-opacity="1"/>
        </g>
      </g>
      <g transform="matrix(0.619946, 0, 0, 0.619946, -334.990051, -77.318451)" style="">
        <g>
          <path d="M295.2 103.93L295.2 111.43L302.7 111.43" transform="matrix(1, 0, 0, 1, 0, 0)" opacity="1" fill-opacity="0" stroke="#6887a3" stroke-width="2" stroke-opacity="1"/>
        </g>
      </g>
      <g transform="matrix(0.619946, 0, 0, 0.619946, -334.990051, -77.318451)" style="">
        <g>
          <path d="M329.45 103.93L329.45 111.43L321.95 111.43" transform="matrix(1, 0, 0, 1, 0, 0)" opacity="1" fill-opacity="0" stroke="#6887a3" stroke-width="2" stroke-opacity="1"/>
        </g>
      </g>
      <g transform="matrix(0.619946, 0, 0, 0.619946, -334.990051, -77.318451)" style="">
        <g>
          <path d="M329.45 82.58L329.45 75.08L321.95 75.08" transform="matrix(1, 0, 0, 1, 0, 0)" opacity="1" fill-opacity="0" stroke="#6887a3" stroke-width="2" stroke-opacity="1"/>
        </g>
      </g>
      <g transform="matrix(0.619946, 0, 0, 0.619946, -334.990051, -77.318451)" style="">
        <g>
          <path d="M334.96 98.93L332.65 98.93L288.95 98.93" transform="matrix(1, 0, 0, 1, 0, 0)" opacity="1" fill-opacity="0" stroke="#6887a3" stroke-width="2" stroke-opacity="1"/>
        </g>
      </g>
      <g transform="matrix(0.619946, 0, 0, 0.619946, -334.990051, -77.318451)" style="">
        <g>
          <path d="M310.98 101.03L310.98 105.13" transform="matrix(1, 0, 0, 1, 0, 0)" opacity="1" fill-opacity="0" stroke="#6887a3" stroke-width="2" stroke-opacity="1"/>
        </g>
      </g>
      <g transform="matrix(0.619946, 0, 0, 0.619946, -334.990051, -77.318451)" style="">
        <g>
          <path d="M317.58 101.03L317.58 105.13" transform="matrix(1, 0, 0, 1, 0, 0)" opacity="1" fill-opacity="0" stroke="#6887a3" stroke-width="2" stroke-opacity="1"/>
        </g>
      </g>
    </g>
  </g>
</svg>